<?xml version="1.0" standalone="no"?>
<!DOCTYPE svg PUBLIC "-//W3C//DTD SVG 20010904//EN"
 "http://www.w3.org/TR/2001/REC-SVG-20010904/DTD/svg10.dtd">
<svg version="1.0" xmlns="http://www.w3.org/2000/svg"
 width="768.000000pt" height="768.000000pt" viewBox="0 0 768.000000 768.000000"
 preserveAspectRatio="xMidYMid meet">
<metadata>
Created by potrace 1.10, written by Peter Selinger 2001-2011
</metadata>
<g transform="translate(0.000000,768.000000) scale(0.100000,-0.100000)"
fill="#ffffff" stroke="none">
<path d="M3633 7643 c-12 -2 -27 -11 -33 -19 -7 -8 -16 -14 -20 -14 -5 0 -53
-26 -107 -58 -54 -32 -105 -61 -113 -65 -8 -4 -28 -16 -45 -27 -16 -11 -41
-24 -54 -30 -13 -6 -35 -19 -50 -29 -14 -10 -48 -31 -76 -45 -27 -15 -63 -36
-80 -47 -16 -10 -37 -22 -45 -26 -8 -4 -58 -32 -110 -63 -52 -31 -102 -59
-110 -63 -8 -4 -28 -16 -45 -27 -16 -11 -39 -24 -51 -29 -11 -5 -50 -27 -85
-48 -35 -22 -71 -42 -79 -46 -8 -4 -28 -16 -45 -26 -16 -11 -52 -32 -80 -47
-82 -45 -88 -48 -130 -75 -22 -14 -47 -29 -55 -32 -8 -4 -28 -16 -45 -27 -16
-11 -43 -26 -60 -34 -16 -8 -52 -29 -80 -45 -27 -17 -59 -35 -70 -41 -11 -6
-33 -19 -50 -29 -16 -11 -50 -31 -75 -44 -25 -14 -61 -34 -80 -46 -19 -11 -44
-25 -55 -31 -11 -6 -33 -19 -50 -30 -16 -11 -37 -23 -45 -27 -8 -4 -46 -25
-85 -48 -38 -22 -77 -44 -85 -48 -8 -4 -28 -16 -45 -27 -16 -11 -41 -24 -54
-30 -13 -6 -35 -19 -50 -29 -14 -10 -48 -31 -76 -45 -27 -15 -63 -36 -80 -47
-16 -10 -39 -23 -50 -29 -11 -5 -27 -14 -35 -20 -22 -14 -163 -95 -180 -103
-8 -4 -28 -16 -45 -27 -16 -11 -41 -24 -54 -30 -13 -6 -35 -19 -50 -29 -14
-10 -48 -31 -76 -45 -27 -15 -63 -36 -80 -47 -16 -10 -39 -23 -50 -28 -12 -5
-26 -16 -33 -24 -9 -11 -12 -446 -12 -1958 0 -1068 3 -1946 8 -1951 10 -10
121 -77 147 -89 11 -5 34 -18 50 -29 17 -11 37 -23 45 -27 8 -4 58 -32 110
-63 52 -31 102 -59 110 -63 8 -4 29 -16 45 -26 17 -11 53 -32 80 -47 28 -14
62 -35 76 -45 15 -10 37 -23 50 -29 13 -6 38 -19 54 -30 17 -11 37 -23 45 -27
8 -4 58 -32 110 -63 52 -31 102 -59 110 -63 8 -4 29 -16 45 -26 17 -11 53 -32
80 -47 28 -14 62 -35 76 -45 15 -10 37 -23 50 -29 13 -6 38 -19 54 -30 17 -11
37 -23 45 -27 17 -8 158 -89 180 -103 8 -6 24 -15 35 -20 11 -6 34 -19 50 -29
17 -11 53 -32 80 -47 28 -14 62 -35 76 -45 15 -10 37 -23 50 -29 13 -6 38 -19
54 -30 17 -11 37 -23 45 -27 17 -8 158 -89 180 -103 8 -6 24 -15 35 -20 11 -6
34 -19 50 -29 17 -11 53 -32 80 -47 28 -14 62 -35 76 -45 15 -10 37 -23 50
-29 13 -6 38 -19 54 -30 17 -11 37 -23 45 -27 17 -8 158 -89 180 -103 8 -6 24
-15 35 -20 11 -6 34 -19 50 -29 17 -11 53 -32 80 -47 28 -14 62 -35 76 -45 15
-10 37 -23 50 -29 13 -6 38 -19 54 -30 17 -11 37 -23 45 -27 8 -3 31 -16 50
-28 113 -70 151 -85 210 -85 60 0 90 12 200 79 19 11 42 24 50 28 8 4 58 32
110 63 52 31 102 59 110 63 8 4 29 16 45 27 17 11 39 24 50 30 11 6 29 16 40
23 11 7 52 30 90 52 39 22 79 45 90 52 11 7 27 16 35 20 8 4 58 32 110 63 52
31 102 59 110 63 8 4 29 16 45 27 17 11 39 24 50 30 11 6 29 16 40 23 11 7 52
30 90 52 39 22 79 45 90 52 11 7 27 16 35 20 8 4 69 39 135 78 66 39 127 74
135 78 8 4 29 16 45 27 17 11 37 23 45 27 8 4 47 25 85 48 39 22 77 44 85 48
8 4 24 13 35 20 11 7 63 37 115 67 52 30 104 60 115 67 11 7 29 17 40 23 11 6
34 19 50 30 17 11 39 24 51 29 19 8 137 77 174 101 8 6 22 13 30 17 8 4 58 32
110 63 52 31 102 59 110 63 8 4 29 16 45 27 17 11 37 23 45 27 17 8 207 118
230 133 8 6 22 13 30 17 8 4 58 32 110 63 52 31 103 59 112 62 45 18 43 -49
40 1881 -1 1181 -6 1827 -12 1827 -5 0 -38 -17 -72 -38 -35 -21 -70 -41 -78
-45 -8 -4 -28 -16 -45 -26 -16 -11 -50 -31 -75 -44 -25 -14 -61 -34 -80 -46
-19 -11 -44 -25 -55 -31 -11 -6 -33 -19 -50 -30 -16 -11 -37 -23 -45 -27 -8
-4 -58 -32 -110 -63 -52 -31 -102 -59 -110 -63 -8 -4 -28 -15 -45 -25 l-30
-19 -3 -1363 c-2 -1351 -2 -1364 -22 -1385 -11 -12 -39 -32 -63 -44 -23 -12
-55 -31 -72 -41 -16 -11 -41 -24 -54 -30 -13 -6 -35 -19 -50 -29 -14 -10 -48
-31 -76 -45 -27 -15 -63 -36 -80 -47 -16 -10 -39 -23 -50 -29 -11 -5 -27 -14
-35 -20 -22 -14 -163 -95 -180 -103 -8 -4 -28 -16 -45 -27 -16 -11 -41 -24
-54 -30 -13 -6 -35 -19 -50 -29 -14 -10 -48 -31 -76 -45 -27 -15 -63 -36 -80
-47 -16 -10 -37 -22 -45 -26 -8 -4 -58 -32 -110 -63 -52 -31 -102 -59 -110
-63 -8 -4 -28 -16 -45 -27 -16 -11 -39 -24 -51 -29 -11 -5 -50 -27 -85 -48
-35 -22 -71 -42 -79 -46 -8 -4 -28 -16 -45 -27 -16 -11 -37 -23 -45 -27 -8 -4
-58 -32 -110 -63 -52 -31 -102 -59 -110 -63 -8 -4 -28 -16 -45 -27 -16 -11
-39 -24 -51 -29 -11 -5 -50 -27 -85 -48 -35 -22 -71 -42 -79 -46 -8 -4 -28
-16 -45 -26 -16 -11 -50 -31 -75 -44 -25 -14 -61 -34 -80 -46 -19 -11 -44 -25
-55 -31 -11 -6 -33 -19 -50 -30 -16 -11 -37 -23 -45 -27 -8 -4 -37 -19 -63
-35 -26 -15 -52 -28 -57 -28 -4 0 -41 19 -82 43 -40 24 -80 46 -88 50 -8 4
-28 16 -45 27 -16 11 -37 23 -45 27 -16 8 -206 118 -230 133 -8 6 -22 13 -30
17 -8 4 -58 32 -110 63 -52 31 -102 59 -110 63 -8 4 -28 16 -45 27 -16 11 -37
23 -45 27 -8 4 -46 26 -85 48 -38 23 -77 44 -85 48 -8 4 -28 16 -45 27 -16 11
-37 23 -45 27 -8 4 -58 32 -110 63 -52 31 -102 59 -110 63 -8 4 -28 16 -45 27
-16 11 -37 23 -45 27 -8 4 -46 26 -85 48 -38 23 -77 44 -85 48 -8 4 -28 16
-45 27 -16 11 -37 23 -45 27 -18 8 -208 119 -230 133 -8 6 -22 13 -30 17 -8 4
-46 26 -85 48 -38 23 -77 44 -85 48 -8 4 -28 16 -45 27 -16 11 -39 24 -50 30
-11 6 -29 16 -40 23 -11 7 -63 37 -115 67 -52 30 -104 60 -115 67 -11 7 -27
15 -35 19 -8 4 -25 16 -38 27 l-22 20 0 1457 0 1457 23 20 c12 12 40 31 62 43
22 12 54 30 70 41 17 10 37 22 45 26 18 8 158 89 180 103 8 6 24 15 35 20 11
6 34 19 50 30 17 11 37 23 45 27 8 4 47 25 85 48 39 22 77 44 85 48 8 4 29 16
45 27 17 11 37 23 45 27 8 4 47 26 85 48 39 23 77 44 85 48 8 4 29 16 45 27
17 11 37 23 45 27 8 4 58 32 110 63 52 31 102 59 110 63 8 4 29 16 45 27 17
11 37 23 45 27 8 4 47 25 85 48 39 22 77 44 85 48 8 4 29 16 45 27 17 11 37
23 45 27 8 4 47 25 85 48 39 22 77 44 85 48 8 4 29 16 45 27 17 11 37 23 45
27 8 4 58 32 110 63 52 31 102 59 110 63 8 4 29 16 45 27 17 11 37 23 45 27
33 15 186 107 203 121 16 14 17 50 17 479 0 254 -3 462 -7 462 -5 -1 -18 -4
-30 -6z"/>
<path d="M4020 7177 c0 -441 1 -453 20 -470 11 -9 27 -17 35 -17 7 0 17 -5 20
-11 4 -5 17 -15 28 -20 12 -5 36 -18 52 -29 17 -11 41 -25 55 -30 13 -6 27
-14 30 -18 3 -4 16 -13 30 -19 14 -7 48 -26 75 -42 28 -17 59 -35 70 -41 11
-6 34 -19 50 -30 17 -11 44 -26 60 -34 17 -8 53 -29 80 -45 28 -17 59 -35 70
-41 11 -6 34 -19 50 -30 17 -11 40 -24 52 -29 11 -5 24 -15 28 -20 3 -6 12
-11 20 -11 8 0 33 -12 57 -27 69 -45 82 -52 103 -63 11 -6 34 -19 50 -30 17
-11 44 -26 60 -34 17 -8 53 -29 80 -45 28 -17 59 -35 70 -41 11 -6 34 -19 50
-30 17 -11 41 -25 55 -30 13 -6 27 -14 30 -18 3 -4 16 -13 30 -19 14 -7 48
-26 75 -42 28 -17 59 -35 70 -41 11 -6 34 -19 50 -29 17 -11 50 -31 75 -44 25
-14 61 -34 80 -46 19 -11 44 -25 55 -31 11 -6 34 -19 50 -30 17 -11 40 -24 52
-29 11 -5 24 -15 28 -20 3 -6 12 -11 20 -11 8 0 31 -12 52 -26 21 -14 47 -30
58 -35 11 -5 34 -18 50 -28 60 -39 105 -59 111 -49 3 5 16 14 27 19 12 5 36
18 52 29 17 11 53 31 80 45 28 14 64 35 80 45 17 11 39 24 50 30 11 6 34 19
50 30 41 26 71 43 130 74 28 15 64 35 80 46 17 11 39 24 50 30 11 6 34 19 50
30 17 11 51 30 77 42 50 24 55 36 22 53 -23 12 -151 85 -179 102 -11 7 -29 17
-40 23 -11 6 -33 19 -50 30 -16 11 -36 22 -42 25 -39 15 -41 17 -118 66 -22
14 -47 29 -55 32 -8 4 -28 16 -45 26 -16 11 -52 32 -80 47 -89 49 -100 55
-130 74 -16 11 -39 24 -50 30 -11 6 -33 19 -50 30 -16 11 -37 23 -45 27 -8 4
-46 25 -85 48 -38 22 -77 44 -85 48 -8 4 -28 16 -45 27 -16 11 -37 23 -45 27
-8 4 -46 25 -85 48 -38 22 -77 44 -85 48 -8 4 -28 16 -45 27 -16 11 -39 24
-50 30 -11 6 -33 19 -50 30 -16 10 -52 31 -80 45 -27 14 -63 34 -80 45 -16 11
-39 24 -50 30 -11 6 -36 20 -55 31 -19 12 -55 32 -80 46 -25 13 -58 33 -75 44
-16 10 -39 23 -50 29 -11 6 -33 19 -50 30 -42 27 -66 41 -130 74 -30 16 -55
33 -55 38 0 4 -9 8 -19 8 -11 0 -23 5 -26 11 -4 5 -17 15 -28 20 -12 5 -35 18
-52 29 -16 11 -39 24 -50 30 -21 10 -36 19 -70 38 -11 7 -29 17 -40 22 -11 6
-33 19 -50 30 -16 11 -39 24 -50 30 -11 6 -33 19 -50 30 -16 11 -43 26 -60 34
-16 8 -52 29 -80 45 -27 17 -59 35 -70 41 -11 6 -33 19 -50 30 -16 11 -40 24
-52 29 -11 5 -24 15 -28 20 -3 6 -15 11 -26 11 -19 0 -19 -11 -19 -453z"/>
<path d="M4515 4820 c-16 -4 -48 -8 -70 -9 -22 -1 -49 -8 -59 -16 -11 -8 -32
-15 -47 -15 -14 0 -32 -7 -39 -15 -7 -8 -20 -15 -29 -15 -9 -1 -34 -12 -56
-26 -22 -13 -48 -27 -57 -30 -10 -4 -18 -10 -18 -14 0 -5 -8 -11 -18 -14 -10
-4 -51 -38 -91 -77 -45 -44 -78 -69 -87 -65 -11 4 -14 31 -14 131 l0 125 -255
0 -255 0 0 -1010 0 -1010 255 0 255 0 2 680 3 680 30 25 c74 62 143 111 180
129 22 10 52 25 67 32 14 8 36 14 48 14 12 0 31 6 43 12 13 8 75 15 146 18
l125 5 -2 230 c-1 127 -2 233 -2 238 0 8 -13 8 -55 -3z"/>
</g>
</svg>
